<svg width="72" height="96" viewBox="0 0 72 96" fill="none" xmlns="http://www.w3.org/2000/svg">
<rect x="1.5" y="1.5" width="69" height="93" rx="22.5" fill="white"/>
<rect x="1.5" y="1.5" width="69" height="93" rx="22.5" stroke="black" stroke-width="3"/>
<rect width="72" height="52" rx="24" fill="black"/>
<path d="M38.0843 39.456C37.0123 39.456 35.9643 39.328 34.9403 39.072C33.9323 38.816 33.0203 38.408 32.2043 37.848C31.3883 37.304 30.7403 36.6 30.2603 35.736C29.7803 34.872 29.5403 33.832 29.5403 32.616C29.5403 31.304 29.8043 30.104 30.3323 29.016C30.8603 27.912 31.6043 26.936 32.5643 26.088C33.5243 25.24 34.6603 24.536 35.9723 23.976C37.3003 23.4 38.7483 22.992 40.3163 22.752L41.1083 25.92C39.7003 26.176 38.4763 26.512 37.4363 26.928C36.4123 27.344 35.5643 27.832 34.8923 28.392C34.2203 28.952 33.7163 29.552 33.3803 30.192C33.0603 30.848 32.9003 31.536 32.9003 32.256C32.9003 32.832 33.0043 33.336 33.2123 33.768C33.4363 34.2 33.7323 34.56 34.1003 34.848C34.4683 35.152 34.8763 35.392 35.3242 35.568C35.7723 35.76 36.2363 35.896 36.7163 35.976C37.1963 36.056 37.6523 36.096 38.0843 36.096C39.1883 36.096 40.2123 35.992 41.1562 35.784C42.1163 35.576 42.9563 35.32 43.6763 35.016L44.6363 38.112C44.2523 38.304 43.7083 38.504 43.0043 38.712C42.3163 38.92 41.5403 39.096 40.6763 39.24C39.8283 39.384 38.9643 39.456 38.0843 39.456ZM33.3083 26.16C32.7483 25.936 32.2283 25.616 31.7483 25.2C31.2843 24.784 30.9083 24.272 30.6203 23.664C30.3483 23.04 30.2123 22.328 30.2123 21.528C30.2123 20.52 30.4763 19.648 31.0043 18.912C31.5323 18.176 32.2363 17.608 33.1163 17.208C33.9963 16.808 34.9563 16.608 35.9963 16.608C36.5083 16.608 36.9803 16.64 37.4123 16.704C37.8603 16.768 38.3163 16.864 38.7803 16.992L38.2523 20.184C37.9163 20.104 37.5723 20.04 37.2203 19.992C36.8683 19.944 36.5563 19.92 36.2843 19.92C35.7243 19.92 35.2363 20 34.8203 20.16C34.4203 20.32 34.1083 20.552 33.8843 20.856C33.6763 21.144 33.5723 21.488 33.5723 21.888C33.5723 22.208 33.6683 22.512 33.8603 22.8C34.0683 23.088 34.3323 23.344 34.6523 23.568C34.9723 23.776 35.3243 23.952 35.7083 24.096C36.0923 24.224 36.4683 24.296 36.8363 24.312L33.3083 26.16Z" fill="white"/>
<path d="M30.1875 79V62.125H42.4219V65.7227H34.418V68.4648H41.1094V71.875H34.418V75.4023H42.5859V79H30.1875Z" fill="black"/>
</svg>
