<svg width="36" height="36" viewBox="0 0 36 36" fill="none" xmlns="http://www.w3.org/2000/svg">
<path d="M23.625 24.2213C23.625 23.895 23.895 23.625 24.2213 23.625C24.5475 23.625 24.8175 23.8838 24.8175 24.2213V25.4138C24.8175 25.74 24.5475 26.01 24.2213 26.01C23.895 26.01 23.625 25.74 23.625 25.4138V24.2213Z" fill="black"/>
<path fill-rule="evenodd" clip-rule="evenodd" d="M18 1.125C8.6805 1.125 1.125 8.6805 1.125 18C1.125 27.3195 8.6805 34.875 18 34.875C27.3195 34.875 34.875 27.3195 34.875 18C34.875 8.6805 27.3195 1.125 18 1.125ZM13.5281 4.07137C7.63875 5.96137 3.375 11.4829 3.375 18C3.375 26.0775 9.9225 32.625 18 32.625C26.0775 32.625 32.625 26.0775 32.625 18C32.625 16.875 32.4979 15.7781 32.2571 14.7251L30.735 17.01C30.6 17.2125 30.375 17.3363 30.1275 17.3363H29.745C29.5538 17.3363 29.3962 17.1788 29.3962 16.9875V16.38C29.3962 15.03 28.4962 12.8363 27.1462 12.8363H25.4025C24.8062 12.8363 24.5812 13.5788 24.93 13.8825L25.1887 14.0962C25.6838 14.5125 25.5825 15.2888 25.0087 15.5813L23.715 16.2338H23.3212C22.9163 16.2338 22.5788 15.8963 22.5788 15.4913V14.535C22.5788 14.2312 22.3312 13.9725 22.0163 13.9725H22.0095C21.6832 13.9725 20.3962 13.9725 20.3962 15.5475V16.11C20.3962 17.2463 22.3538 18.1575 23.4675 18.3375C23.6475 18.36 23.7937 18.5175 23.7937 18.6975V19.1025C23.7937 19.35 23.7375 19.5975 23.625 19.8225L21.4762 23.0287H21.0938C20.7225 23.0287 20.4187 23.3212 20.4075 23.6925L20.34 26.415L18.4275 28.3275C18.2025 28.5638 17.8988 28.6875 17.5725 28.6875H17.0212C16.3463 28.6875 15.8063 28.1362 15.8063 27.4725V24.9412C15.8063 24.3113 15.48 24.1537 15.2438 24.1537H14.85C14.445 24.1537 14.1075 23.8162 14.1075 23.4112V21.4762C14.1075 20.43 13.2638 19.5863 12.2175 19.5863H9C7.99875 19.5863 6.75 17.685 6.75 16.6838V15.885C6.75 15.3787 6.94125 14.895 7.27875 14.535L8.4825 13.2638C8.7525 12.9825 9.135 12.825 9.52875 12.8363H10.7212C11.07 12.8363 11.3963 12.7013 11.6438 12.4537L12.0037 12.0938C12.2513 11.8462 12.5887 11.7113 12.9375 11.7113H14.1075C14.3663 11.7113 14.6588 11.8463 14.6475 12.15V12.465C14.6138 13.1175 15.885 12.825 15.885 12.825C15.885 12.825 16.965 11.8463 17.46 11.7338C17.9663 11.61 18.9788 11.8913 19.575 12.2513C19.9012 12.4425 20.3062 12.2175 20.3062 11.8462C20.3062 11.1375 19.7212 10.5638 19.0125 10.5638H18.5963C18.4501 10.5638 18.3098 10.5057 18.2065 10.4023C18.1031 10.2989 18.045 10.1587 18.045 10.0125V9.2025C18.045 9.11597 18.0106 9.03299 17.9494 8.97181C17.8883 8.91062 17.8053 8.87625 17.7188 8.87625H17.3025C17.0662 8.87625 16.8413 8.98875 16.7063 9.19125L16.0087 10.2262C15.8737 10.44 15.6375 10.5638 15.3787 10.5638H15.2212C14.8612 10.5638 14.5238 10.4288 14.265 10.17L13.77 9.7875C13.365 9.45 12.8475 9.43875 12.7463 9.43875H11.655C11.43 9.43875 11.2613 9.61875 11.2613 9.8325L11.2163 10.17C11.2163 10.575 10.935 11.1263 10.53 11.1263H9.8775C9.4725 11.1263 9.14625 10.8 9.14625 10.4062V9.05625C9.14625 8.64 9.48375 8.31375 9.88875 8.31375C10.1137 8.31375 10.2825 8.13375 10.2825 7.92V7.57125C10.2825 6.6825 10.9237 6.5475 11.3962 6.66C11.5976 6.71287 11.8069 6.80175 12.0184 6.89287C12.3525 7.03575 12.6934 7.182 13.0162 7.18875H14.7937C15.4575 7.18875 15.8962 6.73875 15.8962 6.08625C15.8962 5.92312 15.9041 5.75325 15.912 5.58563C15.9469 4.83975 15.9795 4.13775 15.3 4.275L14.985 4.59C14.7825 4.80375 14.6587 5.085 14.6587 5.38875V5.54625C14.6587 5.8275 14.4338 6.075 14.1525 6.0975C13.8825 6.10875 13.5337 6.06375 13.5337 5.715C13.5337 5.4225 13.5248 5.25375 13.5169 5.09963C13.5056 4.86337 13.4944 4.66875 13.5225 4.12875L13.5281 4.07137ZM20.5144 3.58987C19.9424 3.49074 19.365 3.42575 18.7852 3.39525L19.1812 3.79125H20.3175L20.5144 3.58987Z" fill="black"/>
</svg>
