<svg width="72" height="96" viewBox="0 0 72 96" fill="none" xmlns="http://www.w3.org/2000/svg">
<rect x="1.5" y="1.5" width="69" height="93" rx="22.5" fill="white"/>
<rect x="1.5" y="1.5" width="69" height="93" rx="22.5" stroke="black" stroke-width="3"/>
<path d="M38.0843 38.456C37.0123 38.456 35.9643 38.328 34.9403 38.072C33.9323 37.816 33.0203 37.408 32.2043 36.848C31.3883 36.304 30.7403 35.6 30.2603 34.736C29.7803 33.872 29.5403 32.832 29.5403 31.616C29.5403 30.304 29.8043 29.104 30.3323 28.016C30.8603 26.912 31.6043 25.936 32.5643 25.088C33.5243 24.24 34.6603 23.536 35.9723 22.976C37.3003 22.4 38.7483 21.992 40.3163 21.752L41.1083 24.92C39.7003 25.176 38.4763 25.512 37.4363 25.928C36.4123 26.344 35.5643 26.832 34.8923 27.392C34.2203 27.952 33.7163 28.552 33.3803 29.192C33.0603 29.848 32.9003 30.536 32.9003 31.256C32.9003 31.832 33.0043 32.336 33.2123 32.768C33.4363 33.2 33.7323 33.56 34.1003 33.848C34.4683 34.152 34.8763 34.392 35.3242 34.568C35.7723 34.76 36.2363 34.896 36.7163 34.976C37.1963 35.056 37.6523 35.096 38.0843 35.096C39.1883 35.096 40.2123 34.992 41.1562 34.784C42.1163 34.576 42.9563 34.32 43.6763 34.016L44.6363 37.112C44.2523 37.304 43.7083 37.504 43.0043 37.712C42.3163 37.92 41.5403 38.096 40.6763 38.24C39.8283 38.384 38.9643 38.456 38.0843 38.456ZM33.3083 25.16C32.7483 24.936 32.2283 24.616 31.7483 24.2C31.2843 23.784 30.9083 23.272 30.6203 22.664C30.3483 22.04 30.2123 21.328 30.2123 20.528C30.2123 19.52 30.4763 18.648 31.0043 17.912C31.5323 17.176 32.2363 16.608 33.1163 16.208C33.9963 15.808 34.9563 15.608 35.9963 15.608C36.5083 15.608 36.9803 15.64 37.4123 15.704C37.8603 15.768 38.3163 15.864 38.7803 15.992L38.2523 19.184C37.9163 19.104 37.5723 19.04 37.2203 18.992C36.8683 18.944 36.5563 18.92 36.2843 18.92C35.7243 18.92 35.2363 19 34.8203 19.16C34.4203 19.32 34.1083 19.552 33.8843 19.856C33.6763 20.144 33.5723 20.488 33.5723 20.888C33.5723 21.208 33.6683 21.512 33.8603 21.8C34.0683 22.088 34.3323 22.344 34.6523 22.568C34.9723 22.776 35.3243 22.952 35.7083 23.096C36.0923 23.224 36.4683 23.296 36.8363 23.312L33.3083 25.16Z" fill="black"/>
<rect y="44" width="72" height="52" rx="24" fill="black"/>
<path d="M30.3984 78V61.125H42.3047V64.1836H34.0195V67.6641H41.0508V70.5938H34.0195V74.9414H42.4688V78H30.3984Z" fill="white"/>
</svg>
