<svg width="36" height="37" viewBox="0 0 36 37" fill="none" xmlns="http://www.w3.org/2000/svg">
<path d="M34.875 21.096C34.875 20.0402 34.3727 18.9776 33.4052 18.414C33.6251 17.3177 33.7866 16.0493 33.7866 14.6261C33.786 8.43806 29.3653 1.125 18 1.125C6.63356 1.125 2.214 8.43806 2.214 14.6261C2.214 16.0487 2.37544 17.3166 2.59537 18.4129C1.62619 18.9765 1.125 20.0402 1.125 21.096C1.125 22.2784 1.75781 23.4647 2.96831 23.9524C1.64813 26.4398 1.09069 30.0122 2.46994 32.5327C3.06675 33.6234 8.48813 37.0997 10.2887 32.7251C12.3474 33.7016 14.9062 34.3159 18 34.3159C21.0938 34.3159 23.6514 33.7016 25.7102 32.7251C27.5119 37.0997 32.9327 33.624 33.5301 32.5327C34.9076 30.0127 34.3507 26.4409 33.03 23.9524C34.2411 23.4647 34.875 22.2789 34.875 21.096ZM18.0056 3.375C26.3301 3.375 31.8814 7.87556 31.8814 13.5011C31.8814 13.5011 30.2158 5.06306 18.0056 5.06306C5.79544 5.06306 3.57413 13.5011 3.57413 13.5011C3.57413 7.87556 9.68006 3.375 18.0056 3.375ZM31.2474 23.0648V23.6273C31.2474 27.5991 27.1372 33.1909 18 33.1909C8.86162 33.1909 4.75144 27.5991 4.75144 23.6273V23.0648H4.2075C2.82994 23.0648 2.21344 22.0759 2.21344 21.096C2.21344 20.1161 2.82994 19.1273 4.2075 19.1273H4.311L4.40775 19.0879C4.4595 19.0671 9.14738 17.0814 9.09675 11.2596C14.4264 16.4199 28.2988 17.2913 31.2474 17.4201V19.1278H31.7925C33.1689 19.1278 33.7866 20.1167 33.7866 21.0966C33.7866 22.0764 33.1689 23.0653 31.7925 23.0653L31.2474 23.0648Z" fill="black"/>
<path d="M25.0312 23.346C26.5846 23.346 27.8438 22.0868 27.8438 20.5335C27.8438 18.9802 26.5846 17.721 25.0312 17.721C23.4779 17.721 22.2188 18.9802 22.2188 20.5335C22.2188 22.0868 23.4779 23.346 25.0312 23.346Z" fill="black"/>
<path d="M10.9688 23.346C12.5221 23.346 13.7812 22.0868 13.7812 20.5335C13.7812 18.9802 12.5221 17.721 10.9688 17.721C9.41545 17.721 8.15625 18.9802 8.15625 20.5335C8.15625 22.0868 9.41545 23.346 10.9688 23.346Z" fill="black"/>
<path d="M22.5506 27.0737C19.6172 29.0987 16.3631 29.0863 13.4483 27.0737C13.0989 26.8307 12.7823 27.2503 13.0196 27.6396C13.9061 29.0863 15.7016 30.3772 17.9989 30.3772C20.2973 30.3772 22.0922 29.0863 22.9793 27.6396C23.2183 27.2503 22.9022 26.8307 22.5506 27.0737Z" fill="black"/>
</svg>
