<svg width="36" height="36" viewBox="0 0 36 36" fill="none" xmlns="http://www.w3.org/2000/svg">
<g clip-path="url(#clip0_22_34)">
<mask id="mask0_22_34" style="mask-type:luminance" maskUnits="userSpaceOnUse" x="0" y="0" width="36" height="36">
<path d="M0 0H36V36H0V0Z" fill="white"/>
</mask>
<g mask="url(#mask0_22_34)">
<path d="M25.3429 1.09126L25.3496 1.09463L26.3813 1.48613L26.3835 1.48726C26.9978 1.72013 27.504 2.12176 27.8674 2.62351C28.261 2.61457 28.6523 2.68643 29.017 2.83465C29.3817 2.98287 29.7122 3.2043 29.988 3.48526L31.923 5.42026C33.269 6.76679 34.3236 8.37578 35.0213 10.1472C35.719 11.9186 36.0448 13.8147 35.9786 15.7174L35.9674 16.1775V16.1865C35.9337 17.1508 35.6191 18.0842 35.0621 18.8721C34.5052 19.66 33.7302 20.2681 32.8324 20.6216C31.9346 20.9751 30.9531 21.0586 30.0085 20.8618C29.0639 20.6651 28.1973 20.1967 27.5153 19.5143L25.794 17.7941L25.6545 17.8526L25.6241 17.8639C24.8526 18.1596 24.0339 18.3136 23.2076 18.3184C23.1026 18.6371 22.9609 18.9439 22.7824 19.2386C21.9019 20.6824 20.6898 21.8954 19.2465 22.7768L19.2454 22.7779C18.9504 22.9582 18.6355 23.1039 18.3071 23.2121C18.3022 24.0368 18.1486 24.8539 17.8538 25.6241L17.8425 25.6545L17.7863 25.7873L19.5143 27.5141C20.1971 28.1961 20.6658 29.0628 20.8628 30.0076C21.0597 30.9524 20.9763 31.9341 20.6228 32.8321C20.2692 33.7302 19.661 34.5053 18.8729 35.0623C18.0847 35.6193 17.151 35.9339 16.1865 35.9674H16.1775L15.7163 35.9786C13.8137 36.0447 11.9179 35.7187 10.1467 35.021C8.37547 34.3234 6.76666 33.2688 5.42026 31.923L3.48526 29.988C3.20479 29.7124 2.98373 29.3822 2.83571 29.0179C2.6877 28.6536 2.61586 28.2628 2.62464 27.8696C2.10894 27.4958 1.71395 26.9792 1.48839 26.3835L1.48614 26.3813L1.09239 25.3429C-0.0352057 22.3534 -0.296845 19.1065 0.337513 15.975L0.481513 15.2393C0.597388 14.652 0.852763 14.148 1.20151 13.743C0.944501 13.1996 0.800695 12.6096 0.778841 12.0089C0.756986 11.4082 0.85754 10.8094 1.07439 10.2488L1.07664 10.2431C1.88781 8.16447 3.12137 6.27669 4.69934 4.6991C6.27732 3.12151 8.16541 1.88842 10.2443 1.07776L10.2499 1.07551C10.8117 0.858232 11.4119 0.757746 12.0138 0.780183C12.6158 0.80262 13.2068 0.94751 13.7509 1.20601C14.1725 0.849729 14.6777 0.606257 15.219 0.498381L15.9593 0.340881L15.9694 0.339756C19.1024 -0.29676 22.3514 -0.036279 25.3429 1.09126ZM25.5848 3.59101L24.5498 3.19726C21.951 2.21851 19.1385 1.99351 16.416 2.54476L15.6735 2.70226C14.9873 2.83726 14.6385 3.61351 14.976 4.23226L21.3435 15.426C21.4785 15.6735 21.7148 15.8423 21.9848 15.921C22.9185 16.1573 23.9085 16.1123 24.8198 15.7635L24.9548 15.7073C25.1408 15.6378 25.3025 15.5157 25.4204 15.3559C25.5382 15.1961 25.6071 15.0055 25.6185 14.8073L26.2373 4.63726C26.257 4.41565 26.2039 4.19366 26.0862 4.00488C25.9685 3.8161 25.7924 3.67081 25.5848 3.59101ZM11.061 3.17476C7.44976 4.58101 4.58101 7.44976 3.17476 11.061C2.79226 12.051 3.17476 13.1648 4.07476 13.716L15.7973 20.8598C16.4948 21.2873 17.3723 21.2873 18.0698 20.8598C19.2085 20.165 20.165 19.2085 20.8598 18.0698C21.2873 17.3723 21.2873 16.4948 20.8598 15.7973L13.716 4.07476C13.1648 3.17476 12.051 2.79226 11.061 3.17476ZM3.59101 25.5848C3.74851 26.001 4.16476 26.271 4.61476 26.2485L14.796 25.6185C14.9942 25.6071 15.1849 25.5382 15.3446 25.4204C15.5044 25.3025 15.6265 25.1407 15.696 24.9548L15.7523 24.8198C16.101 23.9085 16.146 22.9185 15.9098 21.9848C15.8734 21.8506 15.811 21.7249 15.7261 21.6149C15.6412 21.5048 15.5354 21.4126 15.4148 21.3435L4.22101 14.976C3.60226 14.6385 2.82601 14.9873 2.69101 15.6735L2.54476 16.416C1.99351 19.1385 2.21851 21.951 3.19726 24.5498L3.59101 25.5848ZM15.4373 26.6198C15.3548 26.5422 15.2575 26.4822 15.1511 26.4435C15.0447 26.4048 14.9315 26.3882 14.8185 26.3948L5.49226 27.2385C4.91851 27.2948 4.67101 27.9923 5.07601 28.3973L7.01101 30.3323C9.29476 32.616 12.4223 33.8423 15.651 33.7298L16.1123 33.7185C16.6382 33.6994 17.147 33.5271 17.5764 33.2228C18.0057 32.9186 18.3369 32.4956 18.5293 32.0057C18.7216 31.5159 18.7668 30.9806 18.6591 30.4655C18.5515 29.9504 18.2959 29.4779 17.9235 29.106L15.4373 26.6198ZM26.6198 15.4373L29.106 17.9235C29.4779 18.2959 29.9504 18.5515 30.4655 18.6591C30.9806 18.7667 31.5159 18.7216 32.0058 18.5293C32.4956 18.3369 32.9186 18.0057 33.2228 17.5764C33.5271 17.147 33.6994 16.6381 33.7185 16.1123L33.7298 15.651C33.8423 12.4223 32.616 9.29476 30.3323 7.01101L28.3973 5.07601C28.306 4.98475 28.1907 4.92132 28.0647 4.89313C27.9388 4.86493 27.8074 4.87313 27.6859 4.91676C27.5645 4.9604 27.4579 5.03767 27.3787 5.13956C27.2995 5.24146 27.2509 5.36378 27.2385 5.49226L26.3948 14.8185C26.3835 15.0435 26.4623 15.2798 26.6198 15.4373Z" fill="black"/>
</g>
</g>
<defs>
<clipPath id="clip0_22_34">
<rect width="36" height="36" fill="white"/>
</clipPath>
</defs>
</svg>
