<svg width="36" height="37" viewBox="0 0 36 37" fill="none" xmlns="http://www.w3.org/2000/svg">
<path d="M34.0908 18.0192C34.1856 17.0334 34.2582 15.7608 34.2582 14.1636C34.2588 9.0552 31.3548 0 18 0C4.6452 0 1.7412 9.0552 1.7412 14.1636C1.7412 15.7608 1.8138 17.0334 1.9074 18.0192C0.6504 18.618 0 19.986 0 21.3396C0 22.3128 0.3174 23.2272 0.8928 23.9124C1.4412 24.5664 2.1786 24.966 3.0456 25.0842C3.4746 32.1204 12.0354 36 18 36C23.9634 36 32.5254 32.1204 32.9532 25.0848C33.8214 24.9666 34.5588 24.567 35.1072 23.9136C35.6838 23.2272 36 22.3128 36 21.3396C36 19.986 35.3496 18.618 34.0908 18.0192ZM34.2246 23.1462C33.7872 23.667 33.1536 23.9418 32.3892 23.9418H31.8078V24.5316C31.8078 30.9054 23.7654 34.8192 17.9994 34.8192C12.2328 34.8192 4.1898 30.906 4.1898 24.5316V23.9418H3.6108C2.8482 23.9418 2.2128 23.667 1.7766 23.1462C1.3854 22.6818 1.1616 22.0224 1.1616 21.3396C1.1616 20.118 1.8438 18.885 3.3672 18.885H3.8256L3.9324 18.4314C3.951 18.3504 4.3998 16.4016 4.6452 12.2868C4.7178 11.058 5.259 10.6224 6.7098 10.6224C7.728 10.6224 9.0534 10.8564 10.5876 11.127C12.6666 11.4948 15.2568 11.952 18 11.952C20.7444 11.952 23.3346 11.4948 25.4142 11.1276C26.9472 10.8564 28.2726 10.623 29.2908 10.623C30.7416 10.623 31.2816 11.0586 31.3554 12.2874C31.6014 16.401 32.0478 18.3504 32.0682 18.4308L32.1738 18.8856H32.6334C34.1568 18.8856 34.839 20.1186 34.839 21.3402C34.8384 22.0224 34.6146 22.6818 34.2246 23.1462Z" fill="black"/>
<path d="M25.4988 16.8C23.8404 16.8 22.5 18.1422 22.5 19.8C22.5 21.4578 23.8404 22.8 25.4988 22.8C26.2945 22.8 27.0575 22.4839 27.6201 21.9213C28.1827 21.3587 28.4988 20.5957 28.4988 19.8C28.4988 19.0044 28.1827 18.2413 27.6201 17.6787C27.0575 17.1161 26.2945 16.8 25.4988 16.8Z" fill="black"/>
<path d="M10.5 22.8C12.1569 22.8 13.5 21.4569 13.5 19.8C13.5 18.1431 12.1569 16.8 10.5 16.8C8.84315 16.8 7.5 18.1431 7.5 19.8C7.5 21.4569 8.84315 22.8 10.5 22.8Z" fill="black"/>
<path d="M22.854 27.3762C19.725 29.5362 16.2552 29.523 13.146 27.3762C12.7722 27.117 12.4344 27.5646 12.6876 27.9798C13.635 29.523 15.5484 30.9 18 30.9C20.4504 30.9 22.365 29.523 23.3112 27.9798C23.5662 27.5646 23.229 27.117 22.854 27.3762Z" fill="black"/>
</svg>
