<svg width="37" height="37" viewBox="0 0 37 37" fill="none" xmlns="http://www.w3.org/2000/svg">
<path d="M31.6844 6.94688C31.7526 6.99038 31.8171 7.04213 31.8779 7.10213L35.1516 10.3759C35.6076 10.8328 35.8654 11.4508 35.8692 12.0963C35.873 12.7419 35.6225 13.3629 35.1719 13.8251L35.1505 13.8476L35.0493 13.959L34.66 14.3798C34.3225 14.7431 33.8376 15.2663 33.2391 15.903C31.7077 17.5347 30.1592 19.1503 28.594 20.7495C25.03 24.3866 20.7494 28.548 18.199 30.2625C15.3269 32.202 12.7169 33.2944 10.8111 33.903C9.85713 34.2068 9.08088 34.3913 8.533 34.4993C8.26146 34.553 7.98833 34.5984 7.714 34.6354L7.67463 34.6399C6.91525 34.7603 6.24363 34.7816 5.64625 34.6568C5.05828 34.541 4.51861 34.2514 4.09713 33.8254L3.30963 33.0379C3.25113 32.9794 3.20013 32.916 3.15663 32.8478C2.8018 32.5257 2.51838 32.1328 2.32462 31.6945C2.13086 31.2562 2.03105 30.7822 2.03163 30.303C2.16325 28.8484 3.53575 28.008 4.75075 27.2655C5.36262 26.963 5.9086 26.5424 6.35725 26.028L7.25163 23.94H7.24375C6.93047 23.94 6.63001 23.8155 6.40848 23.594C6.18695 23.3725 6.0625 23.072 6.0625 22.7588C6.0625 22.4455 6.18695 22.145 6.40848 21.9235C6.63001 21.702 6.93047 21.5775 7.24375 21.5775H8.26413L8.98863 19.8855C8.73293 19.7841 8.52065 19.5966 8.38841 19.3554C8.25617 19.1141 8.21227 18.8343 8.26426 18.5642C8.31626 18.2941 8.46091 18.0506 8.67324 17.8757C8.88558 17.7008 9.15229 17.6055 9.42738 17.6063H9.96513L10.5636 16.2101C10.2546 16.1967 9.96326 16.0626 9.75205 15.8367C9.54084 15.6108 9.42665 15.311 9.43402 15.0019C9.44138 14.6927 9.56971 14.3987 9.79144 14.1831C10.0132 13.9675 10.3106 13.8475 10.6199 13.8488H11.575L12.0374 12.7688C12.1071 12.6 12.1499 12.4785 12.1859 12.375C12.336 11.8836 12.6158 11.4417 12.9959 11.0959L13.5809 10.5098C13.8505 10.2503 14.1767 10.057 14.5338 9.945V9.43875C15.2369 7.31813 17.8019 6.579 19.522 7.86938L21.916 5.42813C21.7008 5.21091 21.5306 4.9533 21.4152 4.6701C21.2999 4.3869 21.2416 4.08369 21.2438 3.7779C21.246 3.47212 21.3086 3.16978 21.428 2.88827C21.5474 2.60675 21.7213 2.35161 21.9396 2.1375C22.5961 1.48329 23.485 1.11594 24.4118 1.11594C25.3386 1.11594 26.2276 1.48329 26.884 2.1375L31.6844 6.94688ZM21.0396 17.2744L21.0363 16.4363C21.0363 14.5238 21.7788 12.7013 23.1063 11.34L27.955 6.3945L25.2944 3.7305C25.1749 3.61054 25.0312 3.51745 24.8728 3.45745C24.7145 3.39745 24.5452 3.37192 24.3762 3.38257C24.2072 3.39322 24.0425 3.4398 23.8929 3.5192C23.7434 3.5986 23.6125 3.70899 23.509 3.843C23.9402 4.27642 24.1822 4.86291 24.1822 5.47425C24.1822 6.0856 23.9402 6.67208 23.509 7.1055L18.5253 12.1028C18.0751 12.5367 17.4742 12.7791 16.849 12.7791C16.2238 12.7791 15.6229 12.5367 15.1728 12.1028L14.5878 12.6878C14.4513 12.7956 14.3544 12.9455 14.3121 13.1141L14.3088 13.1254C14.2604 13.2649 14.2008 13.4336 14.1063 13.653L14.023 13.8488H15.085C15.7375 13.8488 16.2663 14.3775 16.2663 15.03C16.2633 15.3424 16.1379 15.6411 15.917 15.862C15.6961 16.0829 15.3974 16.2083 15.085 16.2113H13.0105L12.4131 17.6063H13.2963C13.9488 17.6063 14.4775 18.135 14.4775 18.7875C14.4746 19.0999 14.3492 19.3986 14.1283 19.6195C13.9074 19.8404 13.6086 19.9658 13.2963 19.9688H11.4006L10.7121 21.5775H11.8113C12.4638 21.5775 12.9925 22.1063 12.9925 22.7588C12.9925 23.085 12.8575 23.3775 12.6438 23.5913C12.43 23.805 12.1375 23.9288 11.8113 23.94H9.69963L8.425 26.9168C7.83581 27.9055 6.96288 28.6941 5.91963 29.1803L5.91625 29.1825C5.35038 29.5279 4.2985 30.1691 4.27038 30.4898C4.27038 30.5528 4.33225 30.7451 4.6135 31.0601C6.53639 30.8202 8.42367 30.3511 10.2351 29.6629C13.5449 28.3894 16.966 26.127 18.2429 22.1243L18.244 22.122C18.6996 20.7045 19.7268 19.0541 20.917 17.4386L21.0396 17.2744ZM33.5631 12.2524C33.591 12.2182 33.6062 12.1755 33.6062 12.1314C33.6062 12.0874 33.591 12.0446 33.5631 12.0105L31.0488 9.495C30.823 9.71625 30.5605 9.97613 30.2613 10.2746C29.0198 11.5163 27.8078 12.7872 26.6264 14.0861C25.2674 15.5824 23.8735 17.2193 22.7271 18.774C21.5639 20.3524 20.7235 21.7575 20.3849 22.8094C20.3328 22.9736 20.2773 23.1368 20.2184 23.2988L33.5609 12.2546L33.5631 12.2524Z" fill="black"/>
</svg>
